# xmcd
#
# Track frame offsets:
#	150
#	16611
#	32635
#	48724
#	67832
#	85035
#	98830
#	117714
#	132623
#	148608
#	167797
#	183588
#
# Disc length: 2704 seconds
#
# Revision: 0
# Processed by: cddbd v1.4PL0 Copyright (c) Steve Scherf et al.
# Submitted via: EasyCDDAExtractor 5.0.4.1
#
DISCID=a40a8e0c
DTITLE=Zaw Paing - Moe Kaung Kin Thit
DYEAR=2002
DGENRE=Country
TTITLE0=Nar Lae Par
TTITLE1=Nga Bawa Kyaunt
TTITLE2=A Lin Mae Nya
TTITLE3=A Sein Yint LinKar
TTITLE4=AChit Oo Zat Lan
TTITLE5=Pann Cherry Lan Mhar
TTITLE6=Law Ka Thit
TTITLE7=Mae Lite Kya Ma Lar
TTITLE8=Pyan Khae Par Kwe
TTITLE9=A Phoe Oe Yet Diary
TTITLE10=Nge Yet Kaung Kin
TTITLE11=Htarwara Yin Khwin
EXTD=
EXTT0=
EXTT1=
EXTT2=
EXTT3=
EXTT4=
EXTT5=
EXTT6=
EXTT7=
EXTT8=
EXTT9=
EXTT10=
EXTT11=
PLAYORDER=
